<svg xmlns="http://www.w3.org/2000/svg" xmlns:xlink="http://www.w3.org/1999/xlink" version="1.1" x="0px" y="0px" viewBox="0 0 100 125" style="enable-background:new 0 0 100 100;" xml:space="preserve"><path d="M43.9760742,57.9853516C45.9023438,58.9482422,47.9287109,59.4365234,50,59.4365234  s4.0976563-0.4882813,6.0239258-1.4511719c5.828125-2.9145508,9.8989258-9.9042969,9.8989258-16.9990234  c0-9.5234375-7.1430664-17.2714844-15.9228516-17.2714844s-15.9228516,7.7480469-15.9228516,17.2714844  C34.0771484,48.0810547,38.1479492,55.0708008,43.9760742,57.9853516z M50,26.7148438  c7.1254883,0,12.9228516,6.4023438,12.9228516,14.2714844c0,6.0029297-3.3886719,11.8896484-8.2407227,14.3154297  c-3.0117188,1.5058594-6.3525391,1.5058594-9.3642578,0c-4.8520508-2.4257813-8.2407227-8.3125-8.2407227-14.3154297  C37.0771484,33.1171875,42.8745117,26.7148438,50,26.7148438z"/><path d="M23.8291016,78.9194336C31.0039063,85.4199219,40.2983398,89,50,89c1.8190918,0,3.6237793-0.1258545,5.4029541-0.37323  c0.7175903-0.0997925,1.4293823-0.2260132,2.1379395-0.3649902c1.4532471-0.2851563,2.8848267-0.6539307,4.2903442-1.1005249  c0.4917603-0.15625,0.9794312-0.3233643,1.4642944-0.4990234c1.3624268-0.4934692,2.6999512-1.0534668,3.9996948-1.6965332  c3.1964111-1.581543,6.1851196-3.6085815,8.8756714-6.0462646c0.0009766-0.0009155,0.001709-0.0020752,0.0026855-0.0029907  C84.3250122,71.5386963,89,60.9992676,89,50c0-21.5048828-17.4951172-39-39-39S11,28.4951172,11,50  C11,61.0009766,15.6762695,71.5419922,23.8291016,78.9194336z M73.2546387,77.4755249  c-0.1983032,0.1680908-0.3967896,0.3356934-0.5982666,0.4991455c-0.2249756,0.1825562-0.4533081,0.3601074-0.6821289,0.5368042  c-0.2047119,0.15802-0.4094238,0.31604-0.6171265,0.4692993c-0.2316895,0.1710815-0.4667358,0.336731-0.7020874,0.5018921  c-0.2120361,0.1487427-0.4237671,0.2977905-0.6386108,0.4417114c-0.2373657,0.1589966-0.4780273,0.3121948-0.718811,0.465271  c-0.218811,0.1390991-0.4371338,0.2788696-0.6586914,0.4130859c-0.2434082,0.1474609-0.4900513,0.2885742-0.7366333,0.4300537  c-0.2244873,0.1287842-0.4483643,0.258728-0.675354,0.3825073c-0.2495728,0.1360474-0.5025024,0.2653809-0.7550659,0.3954468  c-0.2297363,0.1182861-0.4586182,0.2379761-0.6906738,0.3511963c-0.2556152,0.1246948-0.5144653,0.2420044-0.7728882,0.3605347  c-0.2338257,0.1072388-0.4667358,0.2165527-0.7027588,0.3186646c-0.2619019,0.1133423-0.5269775,0.2188721-0.7914429,0.3258667  c-0.2374878,0.0960693-0.473877,0.1947021-0.7133789,0.2857056c-0.2672119,0.1015015-0.5375366,0.1947021-0.8071899,0.289856  c-0.241333,0.0852051-0.4816284,0.1732178-0.7248535,0.2532349c-0.2735596,0.0900269-0.5501099,0.1709595-0.8258667,0.2543945  c-0.2425537,0.0733643-0.4839478,0.1502686-0.7282104,0.2185059c-0.2821045,0.0788574-0.5671997,0.1480713-0.8514404,0.2200317  c-0.2418823,0.0612183-0.4824829,0.1265869-0.7258301,0.1828003c-0.2919312,0.0674438-0.5865479,0.1246948-0.8804321,0.1849365  c-0.2384644,0.0488892-0.475769,0.102356-0.7154541,0.1464844c-0.3058472,0.0562134-0.6142578,0.1015015-0.921936,0.1498413  c-0.230957,0.0363159-0.4606323,0.0778198-0.6925659,0.1096802c-0.3248291,0.0446167-0.6519775,0.0774536-0.9785156,0.1132202  c-0.2172852,0.0238037-0.4333496,0.0535278-0.6513062,0.0734253c-0.3644409,0.0332642-0.730896,0.0537109-1.097168,0.0759277  c-0.1821289,0.0110474-0.3633423,0.0285034-0.5459595,0.0368652C51.1043091,85.9869385,50.5529175,86,50,86  s-1.1043091-0.0130615-1.6539917-0.0380859c-0.1826172-0.0083618-0.3638306-0.0258179-0.5459595-0.0368652  c-0.366272-0.0222168-0.7327271-0.0426636-1.097168-0.0759277c-0.2179565-0.0198975-0.434021-0.0496216-0.6513062-0.0734253  c-0.3265381-0.0357666-0.6536865-0.0686035-0.9785156-0.1132202c-0.2319336-0.0318604-0.4616089-0.0733643-0.6925659-0.1096802  c-0.3076782-0.0483398-0.6160889-0.0936279-0.921936-0.1498413c-0.2396851-0.0441284-0.4769897-0.0975952-0.7154541-0.1464844  c-0.2938843-0.0602417-0.588501-0.1174927-0.8804321-0.1849365c-0.2436523-0.0562744-0.4845581-0.1216431-0.7267456-0.1829834  c-0.2838135-0.0718384-0.5684814-0.1410522-0.8502197-0.2197876c-0.2441406-0.0682373-0.4854126-0.1450195-0.7279053-0.2183838  c-0.2762451-0.0834961-0.5532837-0.1647339-0.8273315-0.2548828c-0.2418213-0.0795288-0.480835-0.1671753-0.7208252-0.2518311  c-0.270813-0.09552-0.5423584-0.1890869-0.810791-0.2911377c-0.2392578-0.0909424-0.4755859-0.1893921-0.7128296-0.2854614  c-0.2644653-0.1069946-0.529541-0.2124634-0.7913208-0.3258057c-0.2363892-0.102356-0.4697266-0.211792-0.7039795-0.3192139  c-0.2581177-0.1183472-0.5167236-0.2356567-0.7720337-0.3601685c-0.2319336-0.1130981-0.4607544-0.2328491-0.6903076-0.3510132  c-0.2528076-0.130127-0.5058594-0.2595825-0.7557373-0.395813c-0.2268677-0.1236572-0.4505615-0.253479-0.6748657-0.3822021  c-0.246582-0.1414185-0.4932251-0.2825928-0.7365723-0.4300537c-0.22229-0.1346436-0.4415283-0.2749023-0.6610718-0.4145508  c-0.239502-0.1523438-0.4788818-0.3046875-0.7150879-0.4628906c-0.2172241-0.1455078-0.4313354-0.2960815-0.6455688-0.4464722  c-0.2322998-0.1630859-0.4642944-0.3265991-0.6930542-0.4954224c-0.2116699-0.156189-0.4202271-0.3170776-0.6287842-0.4781494  c-0.2246704-0.1735229-0.4487305-0.3479004-0.6696777-0.5270996c-0.2060547-0.1671143-0.4092407-0.338501-0.6119995-0.510498  c-0.1325684-0.1124268-0.2637329-0.2268677-0.3948364-0.3414307c0.1276855-4.3962402,3.2869263-8.357605,7.9425659-9.9153442  l10.3706055-3.472168c3.4658203,1.2792969,7.2255859,1.2792969,10.6914063,0l10.3706055,3.472168  c4.6555176,1.5576782,7.8146973,5.5187988,7.9425049,9.9150391C73.5245972,77.2432251,73.3903809,77.3604126,73.2546387,77.4755249z   M50,14c19.8505859,0,36,16.1494141,36,36c0,9.1314697-3.4995117,17.9119873-9.6762695,24.5429077  c-1.0748901-4.6046753-4.6815186-8.5132446-9.6552734-10.1766968l-10.8847656-3.6445313  c-0.3408203-0.1142578-0.7124023-0.1015625-1.0444336,0.0341797c-3.0664063,1.2558594-6.4121094,1.2558594-9.4785156,0  c-0.3325195-0.1357422-0.703125-0.1484375-1.0444336-0.0341797L33.331543,64.3662109  c-4.973877,1.6635132-8.5805054,5.5722656-9.6553345,10.177002C17.4998169,67.9125366,14,59.1317749,14,50  C14,30.1494141,30.1494141,14,50,14z"/><text x="0" y="115" fill="#000000" font-size="5px" font-weight="bold" font-family="'Helvetica Neue', Helvetica, Arial-Unicode, Arial, Sans-serif">Created by Edwin PM</text><text x="0" y="120" fill="#000000" font-size="5px" font-weight="bold" font-family="'Helvetica Neue', Helvetica, Arial-Unicode, Arial, Sans-serif">from the Noun Project</text></svg>