<?xml version="1.0" encoding="utf-8"?>
<!-- Generator: Adobe Illustrator 23.0.1, SVG Export Plug-In . SVG Version: 6.00 Build 0)  -->
<svg version="1.1" id="Layer_1" xmlns="http://www.w3.org/2000/svg" xmlns:xlink="http://www.w3.org/1999/xlink" x="0px" y="0px"
	 viewBox="0 0 79.6 79.7" style="enable-background:new 0 0 79.6 79.7;" xml:space="preserve">
<style type="text/css">
	.st0{fill:#FFFFFF;}
</style>
<path class="st0" d="M33.8,47.9c1.9,1,4,1.5,6,1.5s4.1-0.5,6-1.5c5.8-2.9,9.9-9.9,9.9-17c0-9.5-7.1-17.3-15.9-17.3
	s-15.9,7.7-15.9,17.3C23.9,38,28,45,33.8,47.9z M39.8,16.7c7.1,0,12.9,6.4,12.9,14.3c0,6-3.4,11.9-8.2,14.3c-3,1.5-6.4,1.5-9.4,0
	c-4.9-2.4-8.2-8.3-8.2-14.3C26.9,23.1,32.7,16.7,39.8,16.7z"/>
<path class="st0" d="M13.6,68.9c7.2,6.5,16.5,10.1,26.2,10.1c1.8,0,3.6-0.1,5.4-0.4c0.7-0.1,1.4-0.2,2.1-0.4
	c1.5-0.3,2.9-0.7,4.3-1.1c0.5-0.2,1-0.3,1.5-0.5c1.4-0.5,2.7-1.1,4-1.7c3.2-1.6,6.2-3.6,8.9-6c0,0,0,0,0,0
	c8.2-7.4,12.8-17.9,12.8-28.9c0-21.5-17.5-39-39-39s-39,17.5-39,39C0.8,50.9,5.5,61.5,13.6,68.9z M63.1,67.4
	c-0.2,0.2-0.4,0.3-0.6,0.5c-0.2,0.2-0.5,0.4-0.7,0.5c-0.2,0.2-0.4,0.3-0.6,0.5c-0.2,0.2-0.5,0.3-0.7,0.5c-0.2,0.1-0.4,0.3-0.6,0.4
	c-0.2,0.2-0.5,0.3-0.7,0.5c-0.2,0.1-0.4,0.3-0.7,0.4c-0.2,0.1-0.5,0.3-0.7,0.4c-0.2,0.1-0.4,0.3-0.7,0.4c-0.2,0.1-0.5,0.3-0.8,0.4
	c-0.2,0.1-0.5,0.2-0.7,0.4c-0.3,0.1-0.5,0.2-0.8,0.4c-0.2,0.1-0.5,0.2-0.7,0.3c-0.3,0.1-0.5,0.2-0.8,0.3c-0.2,0.1-0.5,0.2-0.7,0.3
	c-0.3,0.1-0.5,0.2-0.8,0.3c-0.2,0.1-0.5,0.2-0.7,0.3c-0.3,0.1-0.6,0.2-0.8,0.3c-0.2,0.1-0.5,0.2-0.7,0.2c-0.3,0.1-0.6,0.1-0.9,0.2
	c-0.2,0.1-0.5,0.1-0.7,0.2c-0.3,0.1-0.6,0.1-0.9,0.2c-0.2,0-0.5,0.1-0.7,0.1c-0.3,0.1-0.6,0.1-0.9,0.1c-0.2,0-0.5,0.1-0.7,0.1
	c-0.3,0-0.7,0.1-1,0.1c-0.2,0-0.4,0.1-0.7,0.1c-0.4,0-0.7,0.1-1.1,0.1c-0.2,0-0.4,0-0.5,0c-0.5,0-1.1,0-1.7,0s-1.1,0-1.7,0
	c-0.2,0-0.4,0-0.5,0c-0.4,0-0.7,0-1.1-0.1c-0.2,0-0.4,0-0.7-0.1c-0.3,0-0.7-0.1-1-0.1c-0.2,0-0.5-0.1-0.7-0.1
	c-0.3,0-0.6-0.1-0.9-0.1c-0.2,0-0.5-0.1-0.7-0.1c-0.3-0.1-0.6-0.1-0.9-0.2c-0.2-0.1-0.5-0.1-0.7-0.2c-0.3-0.1-0.6-0.1-0.9-0.2
	c-0.2-0.1-0.5-0.1-0.7-0.2c-0.3-0.1-0.6-0.2-0.8-0.3c-0.2-0.1-0.5-0.2-0.7-0.3c-0.3-0.1-0.5-0.2-0.8-0.3c-0.2-0.1-0.5-0.2-0.7-0.3
	c-0.3-0.1-0.5-0.2-0.8-0.3c-0.2-0.1-0.5-0.2-0.7-0.3c-0.3-0.1-0.5-0.2-0.8-0.4c-0.2-0.1-0.5-0.2-0.7-0.4c-0.3-0.1-0.5-0.3-0.8-0.4
	c-0.2-0.1-0.5-0.3-0.7-0.4c-0.2-0.1-0.5-0.3-0.7-0.4c-0.2-0.1-0.4-0.3-0.7-0.4c-0.2-0.2-0.5-0.3-0.7-0.5c-0.2-0.1-0.4-0.3-0.6-0.4
	c-0.2-0.2-0.5-0.3-0.7-0.5c-0.2-0.2-0.4-0.3-0.6-0.5c-0.2-0.2-0.4-0.3-0.7-0.5c-0.2-0.2-0.4-0.3-0.6-0.5c-0.1-0.1-0.3-0.2-0.4-0.3
	c0.1-4.4,3.3-8.4,7.9-9.9l10.4-3.5c3.5,1.3,7.2,1.3,10.7,0l10.4,3.5c4.7,1.6,7.8,5.5,7.9,9.9C63.3,67.2,63.2,67.3,63.1,67.4z
	 M39.8,3.9c19.9,0,36,16.1,36,36c0,9.1-3.5,17.9-9.7,24.5c-1.1-4.6-4.7-8.5-9.7-10.2l-10.9-3.6c-0.3-0.1-0.7-0.1-1,0
	c-3.1,1.3-6.4,1.3-9.5,0c-0.3-0.1-0.7-0.1-1,0l-10.9,3.6c-5,1.7-8.6,5.6-9.7,10.2c-6.2-6.6-9.7-15.4-9.7-24.5
	C3.8,20.1,20,3.9,39.8,3.9z"/>
</svg>
