<?xml version="1.0" encoding="utf-8"?>
<!-- Generator: Adobe Illustrator 23.0.1, SVG Export Plug-In . SVG Version: 6.00 Build 0)  -->
<svg version="1.1" id="Layer_1" xmlns="http://www.w3.org/2000/svg" xmlns:xlink="http://www.w3.org/1999/xlink" x="0px" y="0px"
	 viewBox="0 0 45.9 74.2" style="enable-background:new 0 0 45.9 74.2;" xml:space="preserve">
<style type="text/css">
	.st0{fill:#FFFFFF;}
</style>
<g>
	<path class="st0" d="M23,73.4c-12.1,0-22-9.9-22-22v-28c0-12.1,9.9-22,22-22s22,9.9,22,22v28C45,63.5,35.1,73.4,23,73.4z M23,5.4
		c-9.9,0-18,8.1-18,18v28c0,9.9,8.1,18,18,18s18-8.1,18-18v-28C41,13.5,32.9,5.4,23,5.4z"/>
</g>
<g>
	<path class="st0" d="M23,26.4c-1.1,0-2-0.9-2-2v-8c0-1.1,0.9-2,2-2s2,0.9,2,2v8C25,25.5,24.1,26.4,23,26.4z"/>
</g>
</svg>
