<?xml version="1.0" encoding="utf-8"?>
<!-- Generator: Adobe Illustrator 23.0.1, SVG Export Plug-In . SVG Version: 6.00 Build 0)  -->
<svg version="1.1" id="Layer_1" xmlns:sketch="http://www.bohemiancoding.com/sketch/ns"
	 xmlns="http://www.w3.org/2000/svg" xmlns:xlink="http://www.w3.org/1999/xlink" x="0px" y="0px" viewBox="0 0 62.7 62.9"
	 style="enable-background:new 0 0 62.7 62.9;" xml:space="preserve">
<style type="text/css">
	.st0{fill-rule:evenodd;clip-rule:evenodd;fill:#FFFFFF;}
</style>
<title>eye-fill 2</title>
<desc>Created with Sketch.</desc>
<g sketch:type="MSPage">
	<path sketch:type="MSShapeGroup" class="st0" d="M42.3,42.1c-4,4-9.4,6.3-15.1,6.3S16.1,46.2,12,42.1c-8.3-8.3-8.3-21.9,0-30.3
		c4.2-4.2,9.7-6.3,15.1-6.3s11,2.1,15.1,6.3C50.6,20.2,50.6,33.8,42.3,42.1 M61,58.2L46.2,43.4c8.5-9.9,8.1-24.8-1.3-34.2
		c-9.8-9.8-25.8-9.8-35.6,0C-0.4,19-0.4,35,9.4,44.8c4.8,4.8,11.1,7.4,17.8,7.4c6.1,0,11.8-2.2,16.4-6.1l14.8,14.8
		c0.4,0.4,0.8,0.5,1.3,0.5c0.5,0,1-0.2,1.3-0.5C61.8,60.2,61.8,59,61,58.2"/>
</g>
</svg>
