<?xml version="1.0" encoding="utf-8"?>
<!-- Generator: Adobe Illustrator 23.0.1, SVG Export Plug-In . SVG Version: 6.00 Build 0)  -->
<svg version="1.1" xmlns="http://www.w3.org/2000/svg" xmlns:xlink="http://www.w3.org/1999/xlink" x="0px" y="0px"
	 viewBox="0 0 64.8 64" style="enable-background:new 0 0 64.8 64;" xml:space="preserve">
<style type="text/css">
	.st0{fill:#0E0037;}
</style>
<g id="background">
</g>
<g id="Layer_1">
	<g>
		<path class="st0" d="M50.3,0.7H14.8C7.3,0.7,1.2,6.7,1.2,14.2v35.5c0,7.4,6.1,13.5,13.5,13.5h35.5c7.4,0,13.5-6.1,13.5-13.5V14.2
			C63.8,6.7,57.7,0.7,50.3,0.7z M43.5,10.7c0-1.2,1-2.2,2.2-2.2h6.6c1.2,0,2.2,1,2.2,2.2v6.6c0,1.2-1,2.2-2.2,2.2h-6.6
			c-1.2,0-2.2-1-2.2-2.2C43.5,17.3,43.5,10.7,43.5,10.7z M50.3,59.9H14.8c-5.6,0-10.2-4.6-10.2-10.2V23.2h14.6
			c3.2-3.9,8-6.4,13.4-6.4s10.2,2.5,13.4,6.4h14.6v26.5C60.5,55.3,55.9,59.9,50.3,59.9z"/>
		<circle class="st0" cx="32.5" cy="33.3" r="14.4"/>
	</g>
</g>
</svg>
