<svg width="560" height="560" viewBox="0 0 560 560" fill="none" xmlns="http://www.w3.org/2000/svg">
<circle opacity="0.7" cx="280" cy="280" r="219.5" stroke="#CCCCCC"/>
<circle cx="280" cy="280" r="144.5" stroke="#CCCCCC"/>
<circle opacity="0.4" cx="280" cy="280" r="279.5" stroke="#CCCCCC"/>
<path d="M222.313 279.2C222.313 248.6 226.813 222.5 238.063 204.95C247.063 190.55 261.013 181.1 282.163 181.1C303.763 181.1 316.813 190.55 325.813 204.95C337.513 222.5 342.013 248.6 342.013 279.2C342.013 309.8 337.513 335.9 325.813 353.45C316.813 367.85 303.763 377.3 282.163 377.3C261.013 377.3 247.063 367.85 238.063 353.45C226.813 335.9 222.313 309.8 222.313 279.2ZM160.213 279.2C160.213 316.55 166.063 353 185.863 383.15C205.213 411.95 236.713 432.2 282.163 432.2C327.613 432.2 359.113 411.95 378.013 383.15C397.813 353 404.113 316.55 404.113 279.2C404.113 241.85 397.813 205.4 378.013 175.25C359.113 146.45 327.613 126.2 282.163 126.2C236.713 126.2 205.213 146.45 185.863 175.25C166.063 205.4 160.213 241.85 160.213 279.2Z" fill="#171717"/>
<path d="M396.694 182.71C396.694 184.635 398.304 186.315 400.264 186.315C402.224 186.315 403.869 184.635 403.869 182.71C403.869 180.75 402.224 179.14 400.264 179.14C398.304 179.14 396.694 180.75 396.694 182.71ZM412.151 174.66C412.151 172.84 412.361 171.055 412.991 169.725C413.621 168.465 414.636 167.625 416.316 167.625C418.031 167.625 419.011 168.465 419.641 169.725C420.306 171.055 420.516 172.84 420.516 174.66C420.516 176.48 420.306 178.265 419.641 179.595C419.011 180.855 418.031 181.695 416.316 181.695C414.636 181.695 413.621 180.855 412.991 179.595C412.361 178.265 412.151 176.48 412.151 174.66ZM406.621 174.66C406.621 177.46 407.041 180.295 408.616 182.675C410.121 184.915 412.641 186.56 416.316 186.56C420.026 186.56 422.546 184.915 424.051 182.675C425.626 180.295 426.046 177.46 426.046 174.66C426.046 171.86 425.626 169.025 424.051 166.645C422.546 164.37 420.026 162.76 416.316 162.76C412.641 162.76 410.121 164.37 408.616 166.645C407.041 169.025 406.621 171.86 406.621 174.66ZM434.094 174.66C434.094 172.84 434.304 171.055 434.934 169.725C435.564 168.465 436.579 167.625 438.259 167.625C439.974 167.625 440.954 168.465 441.584 169.725C442.249 171.055 442.459 172.84 442.459 174.66C442.459 176.48 442.249 178.265 441.584 179.595C440.954 180.855 439.974 181.695 438.259 181.695C436.579 181.695 435.564 180.855 434.934 179.595C434.304 178.265 434.094 176.48 434.094 174.66ZM428.564 174.66C428.564 177.46 428.984 180.295 430.559 182.675C432.064 184.915 434.584 186.56 438.259 186.56C441.969 186.56 444.489 184.915 445.994 182.675C447.569 180.295 447.989 177.46 447.989 174.66C447.989 171.86 447.569 169.025 445.994 166.645C444.489 164.37 441.969 162.76 438.259 162.76C434.584 162.76 432.064 164.37 430.559 166.645C428.984 169.025 428.564 171.86 428.564 174.66Z" fill="#171717"/>
<ellipse cx="126.882" cy="277" rx="24.8815" ry="25" fill="#F1E3FF"/>
<path d="M125.389 291.072H128.434V287.817C132.879 287.292 136.239 284.352 136.239 279.802C136.239 275.462 133.649 273.432 128.434 272.382V266.957C129.834 267.447 130.814 268.567 130.919 270.317L135.434 269.827L135.749 269.442C135.154 265.767 132.669 263.352 128.434 262.862V259.572H125.389V262.792C121.259 263.142 118.424 265.522 118.424 269.232C118.424 272.837 121.154 275.182 124.899 275.987L125.389 276.092V283.232C123.709 282.707 122.484 281.272 122.274 279.067L117.409 279.802L117.129 280.187C117.479 284.177 120.699 287.292 125.389 287.817V291.072ZM125.389 271.507C123.674 270.842 123.114 270.037 123.114 268.952C123.114 267.902 123.884 267.062 125.389 266.747V271.507ZM128.434 283.302V276.932C130.324 277.597 130.989 278.542 130.989 280.187C130.989 281.867 129.974 282.952 128.434 283.302Z" fill="#4F1B87"/>
</svg>
